<svg width="29" height="37" viewBox="0 0 29 37" fill="none" xmlns="http://www.w3.org/2000/svg">
<path d="M12.1899 0.0388153C12.5409 0.00408242 12.9354 -0.00353398 13.2858 0.00132754C28.713 0.216207 30.9322 17.0665 19.5725 24.9753C18.6688 25.6045 17.8324 26.0247 16.8654 26.5224C17.9606 28.175 19.0224 29.8897 20.2053 31.4745C21.5257 33.2979 23.5517 34.416 25.8566 33.9169C27.1304 33.641 29.0796 33.0197 28.9975 35.2846C28.9868 35.5793 28.6123 36.0449 28.3556 36.1875C26.8404 37.0292 24.7415 37.1067 23.0585 36.8532C19.5419 36.1049 17.6735 33.3953 15.8326 30.6429L13.6175 27.3315C13.1844 26.6945 12.4979 25.7784 12.1541 25.1351C13.3934 24.8148 16.5929 23.4673 17.4751 22.5883L17.4461 22.4144C17.2696 21.3678 17.0425 20.2893 16.0958 19.6456C15.247 19.0685 13.5375 19.0642 12.8192 19.8487C12.2833 20.434 11.871 21.1646 11.4492 21.8378L10.0184 24.1024L4.97385 32.0589L3.34084 34.6384C2.68094 35.6991 1.86384 37.7702 0.388187 36.7029C0.168003 36.5436 0.0344537 35.9565 0.0269862 35.7055C-0.0106221 34.4402 0.0119969 33.169 0.0143778 31.9025L0.0165956 24.4575L0.0132417 16.2413C0.0115642 14.6506 -0.0737715 11.9991 0.211239 10.5363C0.616975 8.39789 1.5654 6.39904 2.96589 4.73095C5.33299 1.88231 8.53532 0.376854 12.1899 0.0388153ZM3.27174 28.9035C3.80112 27.9302 4.57206 26.7981 5.17644 25.8488L8.74793 20.2395C9.57807 18.948 10.2392 17.7009 11.6449 16.9575C14.9696 15.1992 19.138 16.6025 20.2177 20.2872C20.8129 19.4433 21.3845 18.7113 21.8564 17.7689C22.9403 15.6039 23.3949 13.1068 23.0564 10.7137C22.3777 5.91694 18.0086 2.69256 13.2177 2.85029C10.2202 3.01326 7.76405 3.97249 5.72157 6.23867C4.58472 7.48613 3.79868 9.01152 3.44311 10.6602C3.17174 11.9305 3.22763 13.6211 3.22785 14.9464L3.23115 19.9054L3.23121 25.4844C3.23131 26.506 3.20393 27.6974 3.25729 28.7102C3.26086 28.7747 3.26568 28.8392 3.27174 28.9035Z" fill="white"/>
</svg>
